# xmcd CD database file
#
# Track frame offsets:
#	150
#	20891
#	38783
#	60405
#	81897
#	101172
#	122614
#	148635
#	174389
#	195911
#	220601
#
# Disc length: 3170 seconds
#
# Revision: 1
# Processed by: cddbd v1.5.2PL0 Copyright (c) Steve Scherf et al.
# Submitted via: CDex 1.70beta2
#
DISCID=900c600b
DTITLE=Chris Gall Trio feat. Enik - Hello Stranger
DYEAR=2010
DGENRE=Jazz
TTITLE0=Eins Plus Eins
TTITLE1=Sarah
TTITLE2=One Gram
TTITLE3=Little Window
TTITLE4=Hello Stranger
TTITLE5=You Fit Perfect To Me
TTITLE6=Blues Panic
TTITLE7=Storm
TTITLE8=Tap The Beat On The Glass
TTITLE9=Chattin' In Six
TTITLE10=Kick Me Out
EXTD=YEAR: 2010
EXTT0=
EXTT1=
EXTT2=
EXTT3=
EXTT4=
EXTT5=
EXTT6=
EXTT7=
EXTT8=
EXTT9=
EXTT10=
PLAYORDER=
